<svg width="46" height="28" viewBox="0 0 46 28" fill="none" xmlns="http://www.w3.org/2000/svg">
<path d="M0 7C0 5.34315 1.34315 4 3 4H43C44.6569 4 46 5.34315 46 7V18C46 23.5228 41.5228 28 36 28H10C4.47715 28 0 23.5228 0 18V7Z" fill="#585858"/>
<path d="M0 3C0 1.34315 1.34315 0 3 0H43C44.6569 0 46 1.34315 46 3V14C46 19.5228 41.5228 24 36 24H10C4.47715 24 0 19.5228 0 14V3Z" fill="#323232"/>
<path d="M21.1348 13.1211H19.1309V16.5723H18V8.04102H20.8242C21.7852 8.04102 22.5234 8.25977 23.0391 8.69727C23.5586 9.13477 23.8184 9.77148 23.8184 10.6074C23.8184 11.1387 23.6738 11.6016 23.3848 11.9961C23.0996 12.3906 22.7012 12.6855 22.1895 12.8809L24.1934 16.502V16.5723H22.9863L21.1348 13.1211ZM19.1309 12.2012H20.8594C21.418 12.2012 21.8613 12.0566 22.1895 11.7676C22.5215 11.4785 22.6875 11.0918 22.6875 10.6074C22.6875 10.0801 22.5293 9.67578 22.2129 9.39453C21.9004 9.11328 21.4473 8.9707 20.8535 8.9668H19.1309V12.2012Z" fill="white"/>
<path d="M28.6816 16.5723H27.5918V9.34766L25.4062 10.1504V9.16602L28.5117 8H28.6816V16.5723Z" fill="white"/>
</svg>
