<svg width="74" height="74" viewBox="0 0 74 74" fill="none" xmlns="http://www.w3.org/2000/svg">
<circle cx="37" cy="37" r="37" transform="rotate(-90 37 37)" fill="#3F3F3F"/>
<path d="M28.5078 49.7168H25.3789V28.043L20 30.4512V27.498L28.0156 24H28.5078V49.7168Z" fill="white"/>
<path d="M40.9531 39.6973V49.7168H37.7363V24.123H45.8926C48.2715 24.123 50.1406 24.8379 51.5 26.2676C52.8594 27.6855 53.5391 29.5781 53.5391 31.9453C53.5391 34.4062 52.8887 36.3047 51.5879 37.6406C50.2988 38.9648 48.4766 39.6504 46.1211 39.6973H40.9531ZM40.9531 36.9375H45.8926C47.3223 36.9375 48.418 36.5098 49.1797 35.6543C49.9414 34.7988 50.3223 33.5742 50.3223 31.9805C50.3223 30.4453 49.9297 29.2148 49.1445 28.2891C48.3594 27.3633 47.2812 26.9004 45.9102 26.9004H40.9531V36.9375Z" fill="white"/>
</svg>
