<?xml version="1.0" standalone="no"?>
<!DOCTYPE svg PUBLIC "-//W3C//DTD SVG 20010904//EN"
 "http://www.w3.org/TR/2001/REC-SVG-20010904/DTD/svg10.dtd">
<svg version="1.0" xmlns="http://www.w3.org/2000/svg"
 width="700.000000pt" height="700.000000pt" viewBox="0 0 700.000000 700.000000"
 preserveAspectRatio="xMidYMid meet">
<metadata>
Created by potrace 1.14, written by Peter Selinger 2001-2017
</metadata>
<g transform="translate(0.000000,700.000000) scale(0.100000,-0.100000)"
fill="#000000" stroke="none">
<path d="M1391 6697 c-165 -166 -402 -405 -526 -532 -125 -126 -370 -375 -546
-552 l-320 -323 55 -117 c30 -65 68 -148 85 -185 17 -38 45 -98 62 -135 17
-38 41 -90 54 -118 12 -27 38 -84 57 -125 20 -41 72 -154 116 -250 44 -96 96
-209 115 -250 19 -41 45 -97 57 -125 12 -27 62 -136 111 -242 49 -106 89 -197
89 -203 0 -13 -17 -50 -119 -263 -39 -82 -71 -150 -71 -152 0 -2 -36 -78 -80
-169 -44 -92 -80 -168 -80 -170 0 -2 -35 -77 -79 -167 -43 -90 -89 -186 -101
-214 -12 -27 -42 -90 -65 -140 -23 -49 -56 -119 -73 -155 -16 -36 -53 -114
-81 -173 l-51 -108 32 -35 c90 -96 120 -129 209 -225 53 -57 108 -117 123
-134 16 -16 71 -77 124 -134 54 -57 104 -112 113 -122 17 -20 180 -197 294
-319 76 -81 149 -160 186 -201 24 -26 188 -203 244 -263 17 -18 75 -81 130
-141 55 -60 131 -142 169 -182 l69 -73 81 80 c44 43 92 88 105 99 13 12 99 93
191 181 92 88 178 170 191 181 13 11 95 89 183 172 87 84 164 153 171 155 10
2 449 -136 525 -165 8 -3 20 -7 25 -9 6 -1 125 -40 265 -87 140 -46 525 -173
855 -282 633 -208 708 -232 740 -245 11 -4 65 -22 120 -40 55 -17 105 -34 112
-37 7 -2 91 115 199 279 306 464 528 801 793 1203 137 209 254 385 260 392 6
7 11 14 11 17 0 3 40 65 89 138 171 256 381 579 384 588 1 5 -223 237 -498
515 -275 279 -663 672 -861 873 l-362 367 67 35 c36 20 129 69 206 110 77 40
154 80 170 90 17 10 89 48 160 85 183 96 292 153 350 185 28 15 100 53 160 85
61 32 162 85 225 119 214 113 255 135 318 167 34 17 62 36 62 40 0 5 -54 62
-119 126 -66 65 -395 390 -731 723 -336 333 -669 662 -740 732 l-130 128 -57
-26 c-32 -14 -98 -44 -148 -66 -49 -22 -115 -51 -145 -65 -30 -14 -118 -54
-195 -88 -77 -35 -165 -74 -195 -88 -30 -14 -122 -55 -205 -92 -82 -37 -172
-77 -200 -90 -416 -188 -614 -275 -627 -275 -8 0 -28 6 -44 14 -35 17 -64 30
-314 139 -107 47 -215 94 -240 105 -80 36 -1144 504 -1177 518 l-32 14 -300
-303z"/>
</g>
</svg>
