<svg width="46" height="28" viewBox="0 0 46 28" fill="none" xmlns="http://www.w3.org/2000/svg">
<path d="M0 7C0 5.34315 1.34315 4 3 4H43C44.6569 4 46 5.34315 46 7V18C46 23.5228 41.5228 28 36 28H10C4.47715 28 0 23.5228 0 18V7Z" fill="#585858"/>
<path d="M0 3C0 1.34315 1.34315 0 3 0H43C44.6569 0 46 1.34315 46 3V14C46 19.5228 41.5228 24 36 24H10C4.47715 24 0 19.5228 0 14V3Z" fill="#323232"/>
<path d="M19.1309 15.6523H23.1738V16.5723H18V8.04102H19.1309V15.6523Z" fill="white"/>
<path d="M27.7383 16.5723H26.6484V9.34766L24.4629 10.1504V9.16602L27.5684 8H27.7383V16.5723Z" fill="white"/>
</svg>
