<svg width="74" height="74" viewBox="0 0 74 74" fill="none" xmlns="http://www.w3.org/2000/svg">
<circle cx="37" cy="37" r="37" transform="rotate(90 37 37)" fill="#3F3F3F"/>
<path d="M34.7129 49.9453H20.4043V47.6074L27.6992 37.9395C28.8008 36.4512 29.5625 35.2324 29.9844 34.2832C30.418 33.3223 30.6348 32.3086 30.6348 31.2422C30.6348 29.8828 30.3184 28.7812 29.6855 27.9375C29.0527 27.0938 28.2207 26.6719 27.1895 26.6719C25.8887 26.6719 24.8809 27.123 24.166 28.0254C23.4629 28.916 23.1113 30.2051 23.1113 31.8926H20C20 29.5371 20.6445 27.6328 21.9336 26.1797C23.2227 24.7266 24.9746 24 27.1895 24C29.2285 24 30.834 24.627 32.0059 25.8809C33.1777 27.123 33.7637 28.7812 33.7637 30.8555C33.7637 33.3867 32.4453 36.3809 29.8086 39.8379L24.1133 47.291H34.7129V49.9453Z" fill="white"/>
<path d="M42.1133 39.9258V49.9453H38.8965V24.3516H47.0527C49.4316 24.3516 51.3008 25.0664 52.6602 26.4961C54.0195 27.9141 54.6992 29.8066 54.6992 32.1738C54.6992 34.6348 54.0488 36.5332 52.748 37.8691C51.459 39.1934 49.6367 39.8789 47.2812 39.9258H42.1133ZM42.1133 37.166H47.0527C48.4824 37.166 49.5781 36.7383 50.3398 35.8828C51.1016 35.0273 51.4824 33.8027 51.4824 32.209C51.4824 30.6738 51.0898 29.4434 50.3047 28.5176C49.5195 27.5918 48.4414 27.1289 47.0703 27.1289H42.1133V37.166Z" fill="white"/>
</svg>
