<svg width="74" height="74" viewBox="0 0 74 74" fill="none" xmlns="http://www.w3.org/2000/svg">
<circle cx="37" cy="37" r="37" fill="#3F3F3F"/>
<path fill-rule="evenodd" clip-rule="evenodd" d="M23.5395 27.2298L19.4626 36.4298C20.5046 35.9516 21.7205 35.4202 23.0457 34.8899C27.1539 33.2459 32.511 31.5304 37.0092 31.5949C41.3117 31.6565 46.4127 33.3696 50.3214 34.9842C51.5361 35.4859 52.6538 35.986 53.6197 36.4382L49.7231 27.2052L52.4164 26.0246L57.8807 38.9722C58.1273 39.5567 57.9837 40.2362 57.5228 40.6654C57.062 41.0945 56.3851 41.1791 55.8361 40.8762L55.8353 40.8757L55.8304 40.8731L55.8085 40.8611C55.7884 40.8501 55.7577 40.8334 55.7166 40.8112C55.6345 40.7669 55.5112 40.7009 55.3505 40.6163C55.0291 40.4471 54.5582 40.2036 53.9671 39.9104C52.8405 39.3516 51.2822 38.6145 49.4928 37.8665C49.4526 37.9647 49.4115 38.0648 49.3694 38.1668C48.6185 39.988 47.5619 42.4219 46.3451 44.8526C45.1355 47.2691 43.7364 49.7461 42.2921 51.6171C41.5715 52.5506 40.7961 53.3909 39.9807 53.9965C39.178 54.5927 38.1881 55.0702 37.0886 54.9915C36.0578 54.9177 35.1494 54.3676 34.4105 53.7379C33.6521 53.0915 32.9242 52.2344 32.2413 51.2892C30.8731 49.3955 29.5453 46.9504 28.3948 44.5778C27.2385 42.1932 26.2348 39.8263 25.5215 38.0599C25.4058 37.7734 25.2976 37.5024 25.1976 37.2493C24.8318 37.3885 24.4713 37.5294 24.1172 37.6711C22.1158 38.472 20.3693 39.2774 19.1237 39.8826C18.5015 40.1849 18.0056 40.4365 17.6671 40.6116C17.4979 40.6991 17.3681 40.7675 17.2815 40.8134C17.2382 40.8364 17.2058 40.8537 17.1847 40.8651L17.1615 40.8776L17.1564 40.8803L17.1555 40.8808C16.6019 41.1815 15.9219 41.0899 15.464 40.653C15.006 40.2159 14.8717 39.5303 15.13 38.9476L20.8675 26L23.5395 27.2298ZM27.9712 36.2696C28.0532 36.4763 28.1405 36.6945 28.2327 36.9228C28.9306 38.6512 29.9064 40.9509 31.0232 43.254C32.1458 45.569 33.3847 47.8325 34.6022 49.5176C35.212 50.3617 35.7817 51.0115 36.2912 51.4458C36.8203 51.8966 37.1503 52.0007 37.2939 52.0109C37.4221 52.0201 37.7282 51.9723 38.2539 51.5818C38.7668 51.2009 39.352 50.5934 39.9879 49.7697C41.2564 48.1264 42.5537 45.8518 43.7335 43.4948C44.9063 41.1519 45.9322 38.7903 46.6665 37.0093C46.6968 36.936 46.7265 36.8637 46.7557 36.7924C43.4836 35.5958 39.9262 34.6249 36.968 34.5825C34.2519 34.5436 31.0418 35.2733 27.9712 36.2696Z" fill="white"/>
</svg>
